<?xml version="1.0" encoding="utf-8"?>
<!-- Generator: Adobe Illustrator 23.0.5, SVG Export Plug-In . SVG Version: 6.00 Build 0)  -->
<svg version="1.1" id="Capa_1" xmlns="http://www.w3.org/2000/svg" xmlns:xlink="http://www.w3.org/1999/xlink" x="0px" y="0px"
	 viewBox="0 0 568.4 145.78" style="enable-background:new 0 0 568.4 145.78;" xml:space="preserve">
<style type="text/css">
	.st0{fill:#F7F7F8;}
	.st1{fill:url(#SVGID_1_);}
	.st2{fill:url(#SVGID_2_);}
	.st3{fill:url(#SVGID_3_);}
	.st4{fill:url(#SVGID_4_);}
	.st5{fill:url(#SVGID_5_);}
	.st6{fill:url(#SVGID_6_);}
	.st7{fill:url(#SVGID_7_);}
	.st8{fill:url(#SVGID_8_);}
	.st9{fill:url(#SVGID_9_);}
	.st10{fill:#717175;}
	.st11{fill:url(#SVGID_10_);}
	.st12{fill:url(#SVGID_11_);}
	.st13{fill:url(#SVGID_12_);}
	.st14{fill:#125B31;}
	.st15{fill:#145F70;}
	.st16{fill:url(#SVGID_13_);}
	.st17{fill:url(#SVGID_14_);}
	.st18{fill:url(#SVGID_15_);}
	.st19{fill:url(#SVGID_16_);}
	.st20{fill:url(#SVGID_17_);}
	.st21{fill:url(#SVGID_18_);}
	.st22{fill:url(#SVGID_19_);}
	.st23{fill:url(#SVGID_20_);}
	.st24{clip-path:url(#SVGID_22_);fill:url(#SVGID_23_);}
	.st25{clip-path:url(#SVGID_22_);fill:url(#SVGID_24_);}
	.st26{clip-path:url(#SVGID_26_);fill:url(#SVGID_27_);}
	.st27{fill:url(#SVGID_28_);}
	.st28{fill:#403E3E;}
	.st29{fill:url(#SVGID_29_);}
	.st30{fill:none;}
	.st31{fill:url(#SVGID_30_);}
	.st32{fill:url(#SVGID_31_);}
	.st33{fill:url(#SVGID_32_);}
	.st34{fill:url(#SVGID_33_);}
	.st35{fill:url(#SVGID_34_);}
	.st36{fill:url(#SVGID_35_);}
	.st37{fill:url(#SVGID_36_);}
	.st38{fill:url(#SVGID_37_);}
	.st39{clip-path:url(#SVGID_39_);fill:url(#SVGID_40_);}
	.st40{clip-path:url(#SVGID_42_);fill:url(#SVGID_43_);}
	.st41{clip-path:url(#SVGID_42_);fill:url(#SVGID_44_);}
	.st42{clip-path:url(#SVGID_46_);fill:url(#SVGID_47_);}
</style>
<rect class="st0" width="568.4" height="145.78"/>
<g>
	<g>
		<g>
			<linearGradient id="SVGID_1_" gradientUnits="userSpaceOnUse" x1="176.7984" y1="67.1741" x2="176.7984" y2="103.5722">
				<stop  offset="0.1644" style="stop-color:#8F8D92"/>
				<stop  offset="0.4836" style="stop-color:#FFFFFF"/>
				<stop  offset="0.9497" style="stop-color:#3D3D3D"/>
			</linearGradient>
			<path class="st1" d="M171.63,68.27c0.13-0.3,0.36-0.56,0.67-0.77c0.32-0.22,0.66-0.32,1.02-0.32h6.97c0.33,0,0.66,0.11,0.97,0.32
				c0.32,0.22,0.54,0.47,0.67,0.77l14.54,33.86c0.13,0.3,0.11,0.61-0.07,0.95c-0.18,0.33-0.54,0.5-1.07,0.5h-8.51
				c-0.37,0-0.71-0.11-1.02-0.32c-0.32-0.22-0.56-0.47-0.72-0.77l-1.34-2.99c-0.17-0.3-0.41-0.56-0.72-0.77
				c-0.32-0.22-0.64-0.32-0.97-0.32h-10.51c-0.37,0-0.71,0.11-1.02,0.32c-0.32,0.22-0.54,0.47-0.67,0.77l-1.39,2.99
				c-0.13,0.3-0.36,0.56-0.67,0.77c-0.32,0.22-0.64,0.32-0.97,0.32h-8.56c-0.17,0-0.34-0.03-0.52-0.1c-0.18-0.07-0.33-0.17-0.45-0.3
				c-0.12-0.13-0.19-0.3-0.22-0.5c-0.03-0.2,0.02-0.43,0.15-0.7L171.63,68.27z M174.57,89.93H179c0.33,0,0.57-0.11,0.72-0.32
				c0.15-0.22,0.14-0.47-0.02-0.77c-0.33-0.83-0.73-1.8-1.19-2.91c-0.47-1.11-0.9-2.15-1.29-3.11c-0.13-0.3-0.28-0.45-0.45-0.45
				c-0.17,0-0.32,0.15-0.45,0.45l-2.49,6.02c-0.13,0.3-0.13,0.56,0,0.77C173.96,89.82,174.21,89.93,174.57,89.93z"/>
			<linearGradient id="SVGID_2_" gradientUnits="userSpaceOnUse" x1="218.7249" y1="67.1243" x2="218.7249" y2="103.5722">
				<stop  offset="0.1644" style="stop-color:#8F8D92"/>
				<stop  offset="0.4836" style="stop-color:#FFFFFF"/>
				<stop  offset="0.9497" style="stop-color:#3D3D3D"/>
			</linearGradient>
			<path class="st2" d="M211.3,103.57h-7.46c-0.33,0-0.62-0.12-0.85-0.35c-0.23-0.23-0.35-0.51-0.35-0.85V68.32
				c0-0.33,0.12-0.61,0.35-0.85c0.23-0.23,0.51-0.35,0.85-0.35h15.49c1.92,0,3.7,0.32,5.33,0.97c1.63,0.65,3.01,1.55,4.16,2.71
				c1.15,1.16,2.04,2.54,2.69,4.13c0.65,1.59,0.97,3.35,0.97,5.28c0,1.06-0.12,2.12-0.37,3.16c-0.25,1.05-0.61,2.03-1.07,2.96
				c-0.47,0.93-1.01,1.77-1.64,2.51c-0.63,0.75-1.34,1.37-2.14,1.87c-0.27,0.2-0.44,0.44-0.52,0.72c-0.08,0.28-0.02,0.56,0.17,0.82
				c1.26,1.66,2.59,3.37,3.98,5.13c1.39,1.76,2.64,3.37,3.73,4.83c0.2,0.27,0.25,0.56,0.15,0.87c-0.1,0.32-0.32,0.47-0.65,0.47
				h-9.26c-0.33,0-0.69-0.09-1.07-0.27c-0.38-0.18-0.67-0.41-0.87-0.67c-1.06-1.39-2.11-2.8-3.15-4.23
				c-1.04-1.43-2.07-2.87-3.1-4.33c-0.2-0.27-0.48-0.49-0.84-0.67c-0.36-0.18-0.71-0.27-1.04-0.27h-1.09
				c-0.33,0-0.61,0.12-0.84,0.35c-0.23,0.23-0.35,0.52-0.35,0.85v8.07c0,0.33-0.12,0.61-0.35,0.85
				C211.92,103.46,211.63,103.57,211.3,103.57z M213.69,83.95h5.25c0.4,0,0.81-0.07,1.24-0.22c0.43-0.15,0.83-0.38,1.19-0.7
				c0.36-0.32,0.66-0.7,0.89-1.17c0.23-0.46,0.35-1.01,0.35-1.64c0-0.33-0.06-0.72-0.17-1.17c-0.12-0.45-0.31-0.88-0.59-1.29
				c-0.28-0.41-0.66-0.76-1.14-1.05c-0.48-0.28-1.06-0.42-1.76-0.42h-5.25c-0.33,0-0.61,0.12-0.84,0.35
				c-0.23,0.23-0.35,0.52-0.35,0.85v5.28c0,0.33,0.12,0.61,0.35,0.85C213.08,83.84,213.36,83.95,213.69,83.95z"/>
			<linearGradient id="SVGID_3_" gradientUnits="userSpaceOnUse" x1="261.2147" y1="67.1741" x2="261.2147" y2="103.5722">
				<stop  offset="0.1644" style="stop-color:#8F8D92"/>
				<stop  offset="0.4836" style="stop-color:#FFFFFF"/>
				<stop  offset="0.9497" style="stop-color:#3D3D3D"/>
			</linearGradient>
			<path class="st3" d="M281.46,68.37v34.01c0,0.33-0.12,0.61-0.35,0.85c-0.23,0.23-0.51,0.35-0.84,0.35h-7.48
				c-0.33,0-0.61-0.12-0.84-0.35c-0.23-0.23-0.35-0.51-0.35-0.85V86.34c0-0.33-0.15-0.51-0.45-0.55c-0.3-0.03-0.55,0.08-0.75,0.35
				l-8.39,13.49c-0.17,0.27-0.43,0.4-0.8,0.4c-0.37,0-0.65-0.13-0.85-0.4l-8.38-13.49c-0.17-0.27-0.4-0.38-0.7-0.35
				c-0.3,0.03-0.45,0.22-0.45,0.55v16.03c0,0.33-0.12,0.61-0.35,0.85c-0.23,0.23-0.51,0.35-0.84,0.35h-7.48
				c-0.33,0-0.61-0.12-0.84-0.35c-0.23-0.23-0.35-0.51-0.35-0.85V68.37c0-0.33,0.12-0.61,0.35-0.85c0.23-0.23,0.51-0.35,0.84-0.35
				h6.94c0.33,0,0.68,0.1,1.04,0.3c0.36,0.2,0.63,0.43,0.79,0.7l9.58,14.04c0.2,0.27,0.43,0.4,0.7,0.4s0.48-0.13,0.65-0.4
				l9.58-14.04c0.2-0.27,0.48-0.5,0.84-0.7c0.36-0.2,0.71-0.3,1.04-0.3h6.94c0.33,0,0.61,0.12,0.84,0.35
				C281.34,67.76,281.46,68.04,281.46,68.37z"/>
			<linearGradient id="SVGID_4_" gradientUnits="userSpaceOnUse" x1="307.0662" y1="66.477" x2="307.0662" y2="104.2194">
				<stop  offset="0.1644" style="stop-color:#8F8D92"/>
				<stop  offset="0.4836" style="stop-color:#FFFFFF"/>
				<stop  offset="0.9497" style="stop-color:#3D3D3D"/>
			</linearGradient>
			<path class="st4" d="M288.22,85.35c0-2.59,0.5-5.03,1.49-7.32c1-2.29,2.34-4.29,4.03-6c1.69-1.71,3.68-3.06,5.98-4.06
				c2.29-1,4.73-1.49,7.32-1.49c2.59,0,5.03,0.5,7.32,1.49c2.29,1,4.29,2.35,6,4.06c1.71,1.71,3.06,3.71,4.06,6
				c1,2.29,1.49,4.73,1.49,7.32s-0.5,5.03-1.49,7.32c-1,2.29-2.35,4.29-4.06,6c-1.71,1.71-3.71,3.06-6,4.06
				c-2.29,1-4.73,1.49-7.32,1.49c-2.59,0-5.03-0.5-7.32-1.49c-2.29-1-4.28-2.35-5.98-4.06c-1.69-1.71-3.04-3.71-4.03-6
				C288.72,90.38,288.22,87.94,288.22,85.35z M298.08,85.35c0,1.26,0.23,2.46,0.7,3.59c0.46,1.13,1.1,2.12,1.92,2.99
				c0.81,0.86,1.77,1.55,2.86,2.07c1.1,0.52,2.26,0.77,3.49,0.77c1.23,0,2.39-0.26,3.49-0.77c1.1-0.51,2.06-1.2,2.89-2.07
				c0.83-0.86,1.48-1.86,1.94-2.99c0.46-1.13,0.7-2.32,0.7-3.59c0-1.23-0.23-2.41-0.7-3.56c-0.47-1.15-1.11-2.14-1.94-2.99
				c-0.83-0.85-1.79-1.53-2.89-2.04c-1.1-0.51-2.26-0.77-3.49-0.77c-1.23,0-2.39,0.26-3.49,0.77c-1.1,0.52-2.05,1.19-2.86,2.04
				c-0.81,0.85-1.45,1.84-1.92,2.99C298.31,82.93,298.08,84.12,298.08,85.35z"/>
			<linearGradient id="SVGID_5_" gradientUnits="userSpaceOnUse" x1="351.8442" y1="66.5268" x2="351.8442" y2="104.2194">
				<stop  offset="0.1644" style="stop-color:#8F8D92"/>
				<stop  offset="0.4836" style="stop-color:#FFFFFF"/>
				<stop  offset="0.9497" style="stop-color:#3D3D3D"/>
			</linearGradient>
			<path class="st5" d="M352.04,104.22c-2.66,0-5.15-0.5-7.47-1.49c-2.32-1-4.36-2.34-6.1-4.03c-1.74-1.69-3.12-3.68-4.13-5.98
				c-1.01-2.29-1.52-4.73-1.52-7.32s0.51-5.03,1.52-7.32c1.01-2.29,2.39-4.29,4.13-6c1.74-1.71,3.78-3.06,6.1-4.06
				c2.32-1,4.81-1.49,7.47-1.49c3.65,0,6.83,0.75,9.54,2.24c2.71,1.49,4.9,3.55,6.6,6.17c0.17,0.27,0.21,0.57,0.12,0.92
				c-0.08,0.35-0.26,0.61-0.52,0.77l-5.98,3.83c-0.27,0.17-0.56,0.22-0.9,0.17c-0.33-0.05-0.61-0.21-0.85-0.47
				c-1.03-1.26-2.18-2.27-3.46-3.04c-1.28-0.76-2.8-1.15-4.56-1.15c-1.26,0-2.45,0.26-3.56,0.77c-1.11,0.52-2.08,1.2-2.91,2.07
				c-0.83,0.86-1.49,1.87-1.97,3.01c-0.48,1.15-0.72,2.33-0.72,3.56c0,1.26,0.24,2.46,0.72,3.59c0.48,1.13,1.14,2.12,1.97,2.96
				c0.83,0.85,1.8,1.53,2.91,2.04c1.11,0.52,2.3,0.77,3.56,0.77c1.26,0,2.51-0.23,3.73-0.7c1.23-0.46,2.21-1.23,2.94-2.29
				c0.17-0.27,0.18-0.51,0.05-0.72c-0.13-0.22-0.37-0.32-0.7-0.32h-5.73c-0.33,0-0.61-0.12-0.85-0.35
				c-0.23-0.23-0.35-0.51-0.35-0.85v-5.93c0-0.33,0.12-0.61,0.35-0.85c0.23-0.23,0.51-0.35,0.85-0.35h17.13
				c0.33,0,0.62,0.11,0.87,0.32c0.25,0.22,0.39,0.51,0.42,0.87c0.07,0.56,0.1,1.25,0.1,2.07c0,0.81-0.05,1.65-0.15,2.51
				c-0.23,2.29-0.88,4.42-1.94,6.37c-1.06,1.96-2.43,3.65-4.11,5.08c-1.68,1.43-3.59,2.55-5.75,3.36
				C356.76,103.81,354.47,104.22,352.04,104.22z"/>
			<linearGradient id="SVGID_6_" gradientUnits="userSpaceOnUse" x1="392.3929" y1="67.1243" x2="392.3929" y2="103.5722">
				<stop  offset="0.1644" style="stop-color:#8F8D92"/>
				<stop  offset="0.4836" style="stop-color:#FFFFFF"/>
				<stop  offset="0.9497" style="stop-color:#3D3D3D"/>
			</linearGradient>
			<path class="st6" d="M406.01,95.61v6.77c0,0.33-0.12,0.61-0.35,0.85c-0.23,0.23-0.52,0.35-0.85,0.35h-24.85
				c-0.37,0-0.66-0.12-0.87-0.35c-0.22-0.23-0.32-0.51-0.32-0.85V68.32c0-0.33,0.11-0.61,0.32-0.85c0.22-0.23,0.51-0.35,0.87-0.35
				h7.47c0.33,0,0.61,0.12,0.85,0.35c0.23,0.23,0.35,0.52,0.35,0.85v24.9c0,0.33,0.11,0.61,0.32,0.85c0.22,0.23,0.51,0.35,0.87,0.35
				h14.99c0.33,0,0.61,0.12,0.85,0.35C405.89,94.99,406.01,95.27,406.01,95.61z"/>
			<linearGradient id="SVGID_7_" gradientUnits="userSpaceOnUse" x1="431.0807" y1="67.1741" x2="431.0807" y2="103.5722">
				<stop  offset="0.1644" style="stop-color:#8F8D92"/>
				<stop  offset="0.4836" style="stop-color:#FFFFFF"/>
				<stop  offset="0.9497" style="stop-color:#3D3D3D"/>
			</linearGradient>
			<path class="st7" d="M425.92,68.27c0.13-0.3,0.36-0.56,0.67-0.77c0.32-0.22,0.66-0.32,1.02-0.32h6.97c0.33,0,0.66,0.11,0.97,0.32
				c0.32,0.22,0.54,0.47,0.67,0.77l14.54,33.86c0.13,0.3,0.11,0.61-0.07,0.95c-0.18,0.33-0.54,0.5-1.07,0.5h-8.51
				c-0.37,0-0.71-0.11-1.02-0.32c-0.32-0.22-0.56-0.47-0.72-0.77l-1.34-2.99c-0.17-0.3-0.41-0.56-0.72-0.77
				c-0.32-0.22-0.64-0.32-0.97-0.32h-10.51c-0.37,0-0.71,0.11-1.02,0.32c-0.32,0.22-0.54,0.47-0.67,0.77l-1.39,2.99
				c-0.13,0.3-0.36,0.56-0.67,0.77c-0.32,0.22-0.64,0.32-0.97,0.32h-8.56c-0.17,0-0.34-0.03-0.52-0.1c-0.18-0.07-0.33-0.17-0.45-0.3
				c-0.12-0.13-0.19-0.3-0.22-0.5c-0.03-0.2,0.02-0.43,0.15-0.7L425.92,68.27z M428.85,89.93h4.43c0.33,0,0.57-0.11,0.72-0.32
				c0.15-0.22,0.14-0.47-0.02-0.77c-0.33-0.83-0.73-1.8-1.19-2.91c-0.47-1.11-0.9-2.15-1.29-3.11c-0.13-0.3-0.28-0.45-0.45-0.45
				c-0.17,0-0.32,0.15-0.45,0.45l-2.49,6.02c-0.13,0.3-0.13,0.56,0,0.77C428.24,89.82,428.49,89.93,428.85,89.93z"/>
			<linearGradient id="SVGID_8_" gradientUnits="userSpaceOnUse" x1="471.2107" y1="66.6264" x2="471.2107" y2="104.2194">
				<stop  offset="0.1644" style="stop-color:#8F8D92"/>
				<stop  offset="0.4836" style="stop-color:#FFFFFF"/>
				<stop  offset="0.9497" style="stop-color:#3D3D3D"/>
			</linearGradient>
			<path class="st8" d="M461.8,91.07c1.79,1.16,3.57,2.07,5.33,2.74c1.76,0.66,3.4,1,4.93,1c1.46,0,2.57-0.21,3.34-0.62
				c0.76-0.41,1.15-1.04,1.15-1.87c0-0.43-0.17-0.77-0.5-1.02c-0.33-0.25-0.77-0.46-1.32-0.62c-0.55-0.17-1.19-0.3-1.92-0.4
				c-0.73-0.1-1.48-0.23-2.24-0.4c-0.73-0.13-1.59-0.29-2.56-0.47c-0.98-0.18-1.98-0.45-3.01-0.8c-1.03-0.35-2.05-0.79-3.06-1.32
				c-1.01-0.53-1.92-1.21-2.71-2.04c-0.8-0.83-1.44-1.82-1.92-2.96c-0.48-1.15-0.72-2.5-0.72-4.06c0-2.29,0.45-4.18,1.34-5.68
				c0.9-1.49,2.03-2.68,3.41-3.56c1.38-0.88,2.91-1.49,4.61-1.84c1.69-0.35,3.34-0.52,4.93-0.52c2.79,0,5.29,0.41,7.49,1.22
				c2.21,0.81,4.32,2,6.35,3.56c0.27,0.23,0.41,0.52,0.45,0.85c0.03,0.33-0.05,0.63-0.25,0.9l-3.88,5.53
				c-0.2,0.27-0.47,0.43-0.8,0.5c-0.33,0.07-0.63,0-0.9-0.2c-1.69-1.06-3.27-1.82-4.73-2.27c-1.46-0.45-2.81-0.67-4.03-0.67
				c-0.37,0-0.79,0.01-1.27,0.02c-0.48,0.02-0.94,0.08-1.37,0.2c-0.43,0.12-0.79,0.31-1.07,0.57c-0.28,0.27-0.42,0.63-0.42,1.1
				c0,0.47,0.35,0.88,1.05,1.24c0.7,0.37,1.49,0.68,2.39,0.95c0.9,0.27,1.76,0.47,2.59,0.62c0.83,0.15,1.36,0.24,1.59,0.27
				c1.19,0.23,2.51,0.57,3.93,1.02c1.43,0.45,2.76,1.11,4.01,1.99c1.24,0.88,2.29,2.03,3.14,3.44c0.85,1.41,1.27,3.18,1.27,5.3
				c0,1.99-0.35,3.71-1.05,5.15c-0.7,1.44-1.67,2.63-2.91,3.56c-1.24,0.93-2.74,1.62-4.48,2.07c-1.74,0.45-3.68,0.67-5.8,0.67
				c-1.73,0-3.34-0.14-4.83-0.42c-1.49-0.28-2.89-0.67-4.18-1.17c-1.29-0.5-2.5-1.09-3.61-1.77c-1.11-0.68-2.13-1.4-3.06-2.17
				c-0.27-0.2-0.42-0.47-0.45-0.82c-0.03-0.35,0.05-0.66,0.25-0.92l3.83-5.53c0.2-0.27,0.46-0.43,0.8-0.5
				C461.24,90.86,461.54,90.91,461.8,91.07z"/>
			<linearGradient id="SVGID_9_" gradientUnits="userSpaceOnUse" x1="508.5451" y1="66.6264" x2="508.5451" y2="104.2194">
				<stop  offset="0.1644" style="stop-color:#8F8D92"/>
				<stop  offset="0.4836" style="stop-color:#FFFFFF"/>
				<stop  offset="0.9497" style="stop-color:#3D3D3D"/>
			</linearGradient>
			<path class="st9" d="M499.14,91.07c1.79,1.16,3.57,2.07,5.33,2.74c1.76,0.66,3.4,1,4.93,1c1.46,0,2.57-0.21,3.34-0.62
				c0.76-0.41,1.15-1.04,1.15-1.87c0-0.43-0.17-0.77-0.5-1.02c-0.33-0.25-0.77-0.46-1.32-0.62c-0.55-0.17-1.19-0.3-1.92-0.4
				c-0.73-0.1-1.48-0.23-2.24-0.4c-0.73-0.13-1.59-0.29-2.56-0.47c-0.98-0.18-1.98-0.45-3.01-0.8c-1.03-0.35-2.05-0.79-3.06-1.32
				c-1.01-0.53-1.92-1.21-2.71-2.04c-0.8-0.83-1.44-1.82-1.92-2.96c-0.48-1.15-0.72-2.5-0.72-4.06c0-2.29,0.45-4.18,1.34-5.68
				c0.9-1.49,2.03-2.68,3.41-3.56c1.38-0.88,2.91-1.49,4.61-1.84c1.69-0.35,3.34-0.52,4.93-0.52c2.79,0,5.29,0.41,7.49,1.22
				c2.21,0.81,4.32,2,6.35,3.56c0.27,0.23,0.41,0.52,0.45,0.85c0.03,0.33-0.05,0.63-0.25,0.9l-3.88,5.53
				c-0.2,0.27-0.47,0.43-0.8,0.5c-0.33,0.07-0.63,0-0.9-0.2c-1.69-1.06-3.27-1.82-4.73-2.27c-1.46-0.45-2.81-0.67-4.03-0.67
				c-0.37,0-0.79,0.01-1.27,0.02c-0.48,0.02-0.94,0.08-1.37,0.2c-0.43,0.12-0.79,0.31-1.07,0.57c-0.28,0.27-0.42,0.63-0.42,1.1
				c0,0.47,0.35,0.88,1.05,1.24c0.7,0.37,1.49,0.68,2.39,0.95c0.9,0.27,1.76,0.47,2.59,0.62c0.83,0.15,1.36,0.24,1.59,0.27
				c1.19,0.23,2.51,0.57,3.93,1.02c1.43,0.45,2.76,1.11,4.01,1.99c1.24,0.88,2.29,2.03,3.14,3.44c0.85,1.41,1.27,3.18,1.27,5.3
				c0,1.99-0.35,3.71-1.05,5.15c-0.7,1.44-1.67,2.63-2.91,3.56c-1.24,0.93-2.74,1.62-4.48,2.07c-1.74,0.45-3.68,0.67-5.8,0.67
				c-1.73,0-3.34-0.14-4.83-0.42c-1.49-0.28-2.89-0.67-4.18-1.17c-1.29-0.5-2.5-1.09-3.61-1.77c-1.11-0.68-2.13-1.4-3.06-2.17
				c-0.27-0.2-0.42-0.47-0.45-0.82c-0.03-0.35,0.05-0.66,0.25-0.92l3.83-5.53c0.2-0.27,0.46-0.43,0.8-0.5
				C498.57,90.86,498.87,90.91,499.14,91.07z"/>
		</g>
	</g>
	<g>
		<g>
			<path class="st10" d="M169.63,66.9c0.13-0.3,0.36-0.56,0.67-0.77c0.32-0.22,0.66-0.32,1.02-0.32h6.97c0.33,0,0.66,0.11,0.97,0.32
				c0.32,0.22,0.54,0.47,0.67,0.77l14.54,33.86c0.13,0.3,0.11,0.61-0.07,0.95c-0.18,0.33-0.54,0.5-1.07,0.5h-8.51
				c-0.37,0-0.71-0.11-1.02-0.32c-0.32-0.22-0.56-0.47-0.72-0.77l-1.34-2.99c-0.17-0.3-0.41-0.56-0.72-0.77
				c-0.32-0.22-0.64-0.32-0.97-0.32h-10.51c-0.37,0-0.71,0.11-1.02,0.32c-0.32,0.22-0.54,0.47-0.67,0.77l-1.39,2.99
				c-0.13,0.3-0.36,0.56-0.67,0.77c-0.32,0.22-0.64,0.32-0.97,0.32h-8.56c-0.17,0-0.34-0.03-0.52-0.1c-0.18-0.07-0.33-0.17-0.45-0.3
				c-0.12-0.13-0.19-0.3-0.22-0.5c-0.03-0.2,0.02-0.43,0.15-0.7L169.63,66.9z M172.57,88.56H177c0.33,0,0.57-0.11,0.72-0.32
				c0.15-0.22,0.14-0.47-0.02-0.77c-0.33-0.83-0.73-1.8-1.19-2.91c-0.47-1.11-0.9-2.15-1.29-3.11c-0.13-0.3-0.28-0.45-0.45-0.45
				c-0.17,0-0.32,0.15-0.45,0.45l-2.49,6.02c-0.13,0.3-0.13,0.56,0,0.77C171.95,88.45,172.2,88.56,172.57,88.56z"/>
			<path class="st10" d="M209.3,102.2h-7.46c-0.33,0-0.62-0.12-0.85-0.35c-0.23-0.23-0.35-0.51-0.35-0.85V66.95
				c0-0.33,0.12-0.61,0.35-0.85c0.23-0.23,0.51-0.35,0.85-0.35h15.49c1.92,0,3.7,0.32,5.33,0.97c1.63,0.65,3.01,1.55,4.16,2.71
				c1.15,1.16,2.04,2.54,2.69,4.13c0.65,1.59,0.97,3.35,0.97,5.28c0,1.06-0.12,2.12-0.37,3.16c-0.25,1.05-0.61,2.03-1.07,2.96
				c-0.47,0.93-1.01,1.77-1.64,2.51c-0.63,0.75-1.34,1.37-2.14,1.87c-0.27,0.2-0.44,0.44-0.52,0.72c-0.08,0.28-0.02,0.56,0.17,0.82
				c1.26,1.66,2.59,3.37,3.98,5.13c1.39,1.76,2.64,3.37,3.73,4.83c0.2,0.27,0.25,0.56,0.15,0.87c-0.1,0.32-0.32,0.47-0.65,0.47
				h-9.26c-0.33,0-0.69-0.09-1.07-0.27c-0.38-0.18-0.67-0.41-0.87-0.67c-1.06-1.39-2.11-2.8-3.15-4.23
				c-1.04-1.43-2.07-2.87-3.1-4.33c-0.2-0.27-0.48-0.49-0.84-0.67c-0.36-0.18-0.71-0.27-1.04-0.27h-1.09
				c-0.33,0-0.61,0.12-0.84,0.35c-0.23,0.23-0.35,0.52-0.35,0.85v8.07c0,0.33-0.12,0.61-0.35,0.85
				C209.92,102.09,209.63,102.2,209.3,102.2z M211.69,82.58h5.25c0.4,0,0.81-0.07,1.24-0.22c0.43-0.15,0.83-0.38,1.19-0.7
				c0.36-0.32,0.66-0.7,0.89-1.17c0.23-0.46,0.35-1.01,0.35-1.64c0-0.33-0.06-0.72-0.17-1.17c-0.12-0.45-0.31-0.88-0.59-1.29
				c-0.28-0.41-0.66-0.76-1.14-1.05c-0.48-0.28-1.06-0.42-1.76-0.42h-5.25c-0.33,0-0.61,0.12-0.84,0.35
				c-0.23,0.23-0.35,0.52-0.35,0.85v5.28c0,0.33,0.12,0.61,0.35,0.85C211.08,82.47,211.36,82.58,211.69,82.58z"/>
			<path class="st10" d="M279.45,67v34.01c0,0.33-0.12,0.61-0.35,0.85c-0.23,0.23-0.51,0.35-0.84,0.35h-7.48
				c-0.33,0-0.61-0.12-0.84-0.35c-0.23-0.23-0.35-0.51-0.35-0.85V84.97c0-0.33-0.15-0.51-0.45-0.55c-0.3-0.03-0.55,0.08-0.75,0.35
				l-8.39,13.49c-0.17,0.27-0.43,0.4-0.8,0.4c-0.37,0-0.65-0.13-0.85-0.4l-8.38-13.49c-0.17-0.27-0.4-0.38-0.7-0.35
				c-0.3,0.03-0.45,0.22-0.45,0.55v16.03c0,0.33-0.12,0.61-0.35,0.85c-0.23,0.23-0.51,0.35-0.84,0.35h-7.48
				c-0.33,0-0.61-0.12-0.84-0.35c-0.23-0.23-0.35-0.51-0.35-0.85V67c0-0.33,0.12-0.61,0.35-0.85c0.23-0.23,0.51-0.35,0.84-0.35h6.94
				c0.33,0,0.68,0.1,1.04,0.3c0.36,0.2,0.63,0.43,0.79,0.7l9.58,14.04c0.2,0.27,0.43,0.4,0.7,0.4s0.48-0.13,0.65-0.4l9.58-14.04
				c0.2-0.27,0.48-0.5,0.84-0.7c0.36-0.2,0.71-0.3,1.04-0.3h6.94c0.33,0,0.61,0.12,0.84,0.35C279.34,66.39,279.45,66.67,279.45,67z"
				/>
			<path class="st10" d="M286.22,83.98c0-2.59,0.5-5.03,1.49-7.32c1-2.29,2.34-4.29,4.03-6c1.69-1.71,3.68-3.06,5.98-4.06
				c2.29-1,4.73-1.49,7.32-1.49c2.59,0,5.03,0.5,7.32,1.49c2.29,1,4.29,2.35,6,4.06c1.71,1.71,3.06,3.71,4.06,6
				c1,2.29,1.49,4.73,1.49,7.32s-0.5,5.03-1.49,7.32c-1,2.29-2.35,4.29-4.06,6c-1.71,1.71-3.71,3.06-6,4.06
				c-2.29,1-4.73,1.49-7.32,1.49c-2.59,0-5.03-0.5-7.32-1.49c-2.29-1-4.28-2.35-5.98-4.06c-1.69-1.71-3.04-3.71-4.03-6
				C286.72,89.01,286.22,86.57,286.22,83.98z M296.08,83.98c0,1.26,0.23,2.46,0.7,3.59c0.46,1.13,1.1,2.12,1.92,2.99
				c0.81,0.86,1.77,1.55,2.86,2.07c1.1,0.52,2.26,0.77,3.49,0.77c1.23,0,2.39-0.26,3.49-0.77c1.1-0.51,2.06-1.2,2.89-2.07
				c0.83-0.86,1.48-1.86,1.94-2.99c0.46-1.13,0.7-2.32,0.7-3.59c0-1.23-0.23-2.41-0.7-3.56c-0.47-1.15-1.11-2.14-1.94-2.99
				c-0.83-0.85-1.79-1.53-2.89-2.04c-1.1-0.51-2.26-0.77-3.49-0.77c-1.23,0-2.39,0.26-3.49,0.77c-1.1,0.52-2.05,1.19-2.86,2.04
				c-0.81,0.85-1.45,1.84-1.92,2.99C296.31,81.56,296.08,82.75,296.08,83.98z"/>
			<path class="st10" d="M350.04,102.85c-2.66,0-5.15-0.5-7.47-1.49c-2.32-1-4.36-2.34-6.1-4.03c-1.74-1.69-3.12-3.68-4.13-5.98
				c-1.01-2.29-1.52-4.73-1.52-7.32s0.51-5.03,1.52-7.32c1.01-2.29,2.39-4.29,4.13-6c1.74-1.71,3.78-3.06,6.1-4.06
				c2.32-1,4.81-1.49,7.47-1.49c3.65,0,6.83,0.75,9.54,2.24c2.71,1.49,4.9,3.55,6.6,6.17c0.17,0.27,0.21,0.57,0.12,0.92
				c-0.08,0.35-0.26,0.61-0.52,0.77l-5.98,3.83c-0.27,0.17-0.56,0.22-0.9,0.17c-0.33-0.05-0.61-0.21-0.85-0.47
				c-1.03-1.26-2.18-2.27-3.46-3.04c-1.28-0.76-2.8-1.15-4.56-1.15c-1.26,0-2.45,0.26-3.56,0.77c-1.11,0.52-2.08,1.2-2.91,2.07
				c-0.83,0.86-1.49,1.87-1.97,3.01c-0.48,1.15-0.72,2.33-0.72,3.56c0,1.26,0.24,2.46,0.72,3.59c0.48,1.13,1.14,2.12,1.97,2.96
				c0.83,0.85,1.8,1.53,2.91,2.04c1.11,0.52,2.3,0.77,3.56,0.77c1.26,0,2.51-0.23,3.73-0.7c1.23-0.46,2.21-1.23,2.94-2.29
				c0.17-0.27,0.18-0.51,0.05-0.72c-0.13-0.22-0.37-0.32-0.7-0.32h-5.73c-0.33,0-0.61-0.12-0.85-0.35
				c-0.23-0.23-0.35-0.51-0.35-0.85v-5.93c0-0.33,0.12-0.61,0.35-0.85c0.23-0.23,0.51-0.35,0.85-0.35h17.13
				c0.33,0,0.62,0.11,0.87,0.32c0.25,0.22,0.39,0.51,0.42,0.87c0.07,0.56,0.1,1.25,0.1,2.07c0,0.81-0.05,1.65-0.15,2.51
				c-0.23,2.29-0.88,4.42-1.94,6.37c-1.06,1.96-2.43,3.65-4.11,5.08c-1.68,1.43-3.59,2.55-5.75,3.36
				C354.76,102.44,352.46,102.85,350.04,102.85z"/>
			<path class="st10" d="M404.01,94.24v6.77c0,0.33-0.12,0.61-0.35,0.85c-0.23,0.23-0.52,0.35-0.85,0.35h-24.85
				c-0.37,0-0.66-0.12-0.87-0.35c-0.22-0.23-0.32-0.51-0.32-0.85V66.95c0-0.33,0.11-0.61,0.32-0.85c0.22-0.23,0.51-0.35,0.87-0.35
				h7.47c0.33,0,0.61,0.12,0.85,0.35c0.23,0.23,0.35,0.52,0.35,0.85v24.9c0,0.33,0.11,0.61,0.32,0.85c0.22,0.23,0.51,0.35,0.87,0.35
				h14.99c0.33,0,0.61,0.12,0.85,0.35C403.89,93.62,404.01,93.9,404.01,94.24z"/>
			<path class="st10" d="M423.91,66.9c0.13-0.3,0.36-0.56,0.67-0.77c0.32-0.22,0.66-0.32,1.02-0.32h6.97c0.33,0,0.66,0.11,0.97,0.32
				c0.32,0.22,0.54,0.47,0.67,0.77l14.54,33.86c0.13,0.3,0.11,0.61-0.07,0.95c-0.18,0.33-0.54,0.5-1.07,0.5h-8.51
				c-0.37,0-0.71-0.11-1.02-0.32c-0.32-0.22-0.56-0.47-0.72-0.77l-1.34-2.99c-0.17-0.3-0.41-0.56-0.72-0.77
				c-0.32-0.22-0.64-0.32-0.97-0.32h-10.51c-0.37,0-0.71,0.11-1.02,0.32c-0.32,0.22-0.54,0.47-0.67,0.77l-1.39,2.99
				c-0.13,0.3-0.36,0.56-0.67,0.77c-0.32,0.22-0.64,0.32-0.97,0.32h-8.56c-0.17,0-0.34-0.03-0.52-0.1c-0.18-0.07-0.33-0.17-0.45-0.3
				c-0.12-0.13-0.19-0.3-0.22-0.5c-0.03-0.2,0.02-0.43,0.15-0.7L423.91,66.9z M426.85,88.56h4.43c0.33,0,0.57-0.11,0.72-0.32
				c0.15-0.22,0.14-0.47-0.02-0.77c-0.33-0.83-0.73-1.8-1.19-2.91c-0.47-1.11-0.9-2.15-1.29-3.11c-0.13-0.3-0.28-0.45-0.45-0.45
				c-0.17,0-0.32,0.15-0.45,0.45l-2.49,6.02c-0.13,0.3-0.13,0.56,0,0.77C426.24,88.45,426.49,88.56,426.85,88.56z"/>
			<path class="st10" d="M459.8,89.71c1.79,1.16,3.57,2.07,5.33,2.74c1.76,0.66,3.4,1,4.93,1c1.46,0,2.57-0.21,3.34-0.62
				c0.76-0.41,1.15-1.04,1.15-1.87c0-0.43-0.17-0.77-0.5-1.02c-0.33-0.25-0.77-0.46-1.32-0.62c-0.55-0.17-1.19-0.3-1.92-0.4
				c-0.73-0.1-1.48-0.23-2.24-0.4c-0.73-0.13-1.59-0.29-2.56-0.47c-0.98-0.18-1.98-0.45-3.01-0.8c-1.03-0.35-2.05-0.79-3.06-1.32
				c-1.01-0.53-1.92-1.21-2.71-2.04c-0.8-0.83-1.44-1.82-1.92-2.96c-0.48-1.15-0.72-2.5-0.72-4.06c0-2.29,0.45-4.18,1.34-5.68
				c0.9-1.49,2.03-2.68,3.41-3.56c1.38-0.88,2.91-1.49,4.61-1.84c1.69-0.35,3.34-0.52,4.93-0.52c2.79,0,5.29,0.41,7.49,1.22
				c2.21,0.81,4.32,2,6.35,3.56c0.27,0.23,0.41,0.52,0.45,0.85c0.03,0.33-0.05,0.63-0.25,0.9l-3.88,5.53
				c-0.2,0.27-0.47,0.43-0.8,0.5c-0.33,0.07-0.63,0-0.9-0.2c-1.69-1.06-3.27-1.82-4.73-2.27c-1.46-0.45-2.81-0.67-4.03-0.67
				c-0.37,0-0.79,0.01-1.27,0.02c-0.48,0.02-0.94,0.08-1.37,0.2c-0.43,0.12-0.79,0.31-1.07,0.57c-0.28,0.27-0.42,0.63-0.42,1.1
				c0,0.47,0.35,0.88,1.05,1.24c0.7,0.37,1.49,0.68,2.39,0.95c0.9,0.27,1.76,0.47,2.59,0.62c0.83,0.15,1.36,0.24,1.59,0.27
				c1.19,0.23,2.51,0.57,3.93,1.02c1.43,0.45,2.76,1.11,4.01,1.99c1.24,0.88,2.29,2.03,3.14,3.44c0.85,1.41,1.27,3.18,1.27,5.3
				c0,1.99-0.35,3.71-1.05,5.15c-0.7,1.44-1.67,2.63-2.91,3.56c-1.24,0.93-2.74,1.62-4.48,2.07c-1.74,0.45-3.68,0.67-5.8,0.67
				c-1.73,0-3.34-0.14-4.83-0.42c-1.49-0.28-2.89-0.67-4.18-1.17c-1.29-0.5-2.5-1.09-3.61-1.77c-1.11-0.68-2.13-1.4-3.06-2.17
				c-0.27-0.2-0.42-0.47-0.45-0.82c-0.03-0.35,0.05-0.66,0.25-0.92l3.83-5.53c0.2-0.27,0.46-0.43,0.8-0.5
				C459.24,89.49,459.54,89.54,459.8,89.71z"/>
			<path class="st10" d="M497.14,89.71c1.79,1.16,3.57,2.07,5.33,2.74c1.76,0.66,3.4,1,4.93,1c1.46,0,2.57-0.21,3.34-0.62
				c0.76-0.41,1.15-1.04,1.15-1.87c0-0.43-0.17-0.77-0.5-1.02c-0.33-0.25-0.77-0.46-1.32-0.62c-0.55-0.17-1.19-0.3-1.92-0.4
				c-0.73-0.1-1.48-0.23-2.24-0.4c-0.73-0.13-1.59-0.29-2.56-0.47c-0.98-0.18-1.98-0.45-3.01-0.8c-1.03-0.35-2.05-0.79-3.06-1.32
				c-1.01-0.53-1.92-1.21-2.71-2.04c-0.8-0.83-1.44-1.82-1.92-2.96c-0.48-1.15-0.72-2.5-0.72-4.06c0-2.29,0.45-4.18,1.34-5.68
				c0.9-1.49,2.03-2.68,3.41-3.56c1.38-0.88,2.91-1.49,4.61-1.84c1.69-0.35,3.34-0.52,4.93-0.52c2.79,0,5.29,0.41,7.49,1.22
				c2.21,0.81,4.32,2,6.35,3.56c0.27,0.23,0.41,0.52,0.45,0.85c0.03,0.33-0.05,0.63-0.25,0.9l-3.88,5.53
				c-0.2,0.27-0.47,0.43-0.8,0.5c-0.33,0.07-0.63,0-0.9-0.2c-1.69-1.06-3.27-1.82-4.73-2.27c-1.46-0.45-2.81-0.67-4.03-0.67
				c-0.37,0-0.79,0.01-1.27,0.02c-0.48,0.02-0.94,0.08-1.37,0.2c-0.43,0.12-0.79,0.31-1.07,0.57c-0.28,0.27-0.42,0.63-0.42,1.1
				c0,0.47,0.35,0.88,1.05,1.24c0.7,0.37,1.49,0.68,2.39,0.95c0.9,0.27,1.76,0.47,2.59,0.62c0.83,0.15,1.36,0.24,1.59,0.27
				c1.19,0.23,2.51,0.57,3.93,1.02c1.43,0.45,2.76,1.11,4.01,1.99c1.24,0.88,2.29,2.03,3.14,3.44c0.85,1.41,1.27,3.18,1.27,5.3
				c0,1.99-0.35,3.71-1.05,5.15c-0.7,1.44-1.67,2.63-2.91,3.56c-1.24,0.93-2.74,1.62-4.48,2.07c-1.74,0.45-3.68,0.67-5.8,0.67
				c-1.73,0-3.34-0.14-4.83-0.42c-1.49-0.28-2.89-0.67-4.18-1.17c-1.29-0.5-2.5-1.09-3.61-1.77c-1.11-0.68-2.13-1.4-3.06-2.17
				c-0.27-0.2-0.42-0.47-0.45-0.82c-0.03-0.35,0.05-0.66,0.25-0.92l3.83-5.53c0.2-0.27,0.46-0.43,0.8-0.5
				C496.57,89.49,496.87,89.54,497.14,89.71z"/>
		</g>
	</g>
	<g>
		<linearGradient id="SVGID_10_" gradientUnits="userSpaceOnUse" x1="72.2336" y1="49.6935" x2="120.3912" y2="41.2021">
			<stop  offset="1.236652e-03" style="stop-color:#2A82A1"/>
			<stop  offset="0.1894" style="stop-color:#33839A"/>
			<stop  offset="0.4948" style="stop-color:#4B8786"/>
			<stop  offset="0.8773" style="stop-color:#728D66"/>
			<stop  offset="1" style="stop-color:#808F5A"/>
		</linearGradient>
		<path class="st11" d="M99.26,64.84l18.46-38.82l-0.51,0c-7.69,0-15.1-0.01-22.51,0.04l-1.19-0.04L74.91,64.84h24.22H99.26z"/>
		<linearGradient id="SVGID_11_" gradientUnits="userSpaceOnUse" x1="89.9063" y1="77.6274" x2="111.4666" y2="77.6274">
			<stop  offset="1.236652e-03" style="stop-color:#2A82A1"/>
			<stop  offset="0.1894" style="stop-color:#33839A"/>
			<stop  offset="0.4948" style="stop-color:#4B8786"/>
			<stop  offset="0.8773" style="stop-color:#728D66"/>
			<stop  offset="1" style="stop-color:#808F5A"/>
		</linearGradient>
		<path class="st12" d="M89.91,81.17c1.87,0,3.21,0,4.91,0l-2.4,4.89h10.86l8.19-16.87H95.44L89.91,81.17z"/>
		<linearGradient id="SVGID_12_" gradientUnits="userSpaceOnUse" x1="49.5876" y1="101.3702" x2="90.8434" y2="101.3702">
			<stop  offset="1.236652e-03" style="stop-color:#2A82A1"/>
			<stop  offset="0.1894" style="stop-color:#33839A"/>
			<stop  offset="0.4948" style="stop-color:#4B8786"/>
			<stop  offset="0.8773" style="stop-color:#728D66"/>
			<stop  offset="1" style="stop-color:#808F5A"/>
		</linearGradient>
		<polygon class="st13" points="66.67,83.04 90.84,83.04 73.51,119.69 49.59,119.7 		"/>
		<polygon class="st14" points="117.72,26.03 113.41,26.03 99.27,64.84 		"/>
		<polygon class="st15" points="49.59,119.7 53.19,119.7 66.67,83.04 		"/>
		<linearGradient id="SVGID_13_" gradientUnits="userSpaceOnUse" x1="118.5561" y1="35.6362" x2="88.0273" y2="53.262">
			<stop  offset="0" style="stop-color:#FFFFFF;stop-opacity:0.4"/>
			<stop  offset="0.143" style="stop-color:#FFFFFF;stop-opacity:0.3423"/>
			<stop  offset="0.9921" style="stop-color:#FFFFFF;stop-opacity:0"/>
		</linearGradient>
		<path class="st16" d="M117.72,26.03l-14.4,30.55l-12.7-1.84c0,0,10.02-19,15.32-23.52C111.69,26.32,117.72,26.03,117.72,26.03z"/>
		<polygon class="st14" points="101.25,86.06 103.46,86.06 111.47,69.19 		"/>
		<linearGradient id="SVGID_14_" gradientUnits="userSpaceOnUse" x1="108.136" y1="70.1629" x2="100.9243" y2="87.5208">
			<stop  offset="0" style="stop-color:#FFFFFF;stop-opacity:0.4"/>
			<stop  offset="0.1414" style="stop-color:#FFFFFF;stop-opacity:0.3434"/>
			<stop  offset="0.9996" style="stop-color:#FFFFFF;stop-opacity:0"/>
		</linearGradient>
		<path class="st17" d="M111.47,69.19l-8.01,16.87H99.5c0,0,2.72-11.11,5.5-13.68C108.02,69.6,111.47,69.19,111.47,69.19z"/>
		
			<linearGradient id="SVGID_15_" gradientUnits="userSpaceOnUse" x1="421.1706" y1="794.8469" x2="414" y2="812.1057" gradientTransform="matrix(0.3782 -0.7354 -0.7618 -0.3918 555.6643 692.3992)">
			<stop  offset="0" style="stop-color:#FFFFFF;stop-opacity:0.4"/>
			<stop  offset="0.1414" style="stop-color:#FFFFFF;stop-opacity:0.3434"/>
			<stop  offset="0.9996" style="stop-color:#FFFFFF;stop-opacity:0"/>
		</linearGradient>
		<path class="st18" d="M111.47,69.19H95.4l-1.24,2.67c0,0,6.71,1.34,9.65,0.23C107.01,70.89,111.47,69.19,111.47,69.19z"/>
		<linearGradient id="SVGID_16_" gradientUnits="userSpaceOnUse" x1="104.3552" y1="37.3415" x2="74.6105" y2="67.0862">
			<stop  offset="0" style="stop-color:#FFFFFF;stop-opacity:0.2"/>
			<stop  offset="0.1449" style="stop-color:#FFFFFF;stop-opacity:0.1708"/>
			<stop  offset="0.9921" style="stop-color:#FFFFFF;stop-opacity:0"/>
		</linearGradient>
		<path class="st19" d="M93.53,26.03h5.67c0,0,6.07,0.31,3.48,18.66s-3.68,20.15-3.68,20.15H74.91L93.53,26.03z"/>
		
			<linearGradient id="SVGID_17_" gradientUnits="userSpaceOnUse" x1="1316.9175" y1="300.7954" x2="1301.3834" y2="338.1842" gradientTransform="matrix(-1 0 0 -1 1373.3711 418.275)">
			<stop  offset="0" style="stop-color:#FFFFFF;stop-opacity:0.4"/>
			<stop  offset="0.1414" style="stop-color:#FFFFFF;stop-opacity:0.3434"/>
			<stop  offset="0.9996" style="stop-color:#FFFFFF;stop-opacity:0"/>
		</linearGradient>
		<path class="st20" d="M49.59,119.7l17.1-36.65h7.91c0,0-5.37,23.76-12.1,29.96C55.19,119.74,49.59,119.7,49.59,119.7z"/>
		
			<linearGradient id="SVGID_18_" gradientUnits="userSpaceOnUse" x1="1307.4224" y1="304.5068" x2="1292.2367" y2="341.0573" gradientTransform="matrix(-1 0 0 -1 1373.3711 418.275)">
			<stop  offset="0" style="stop-color:#FFFFFF;stop-opacity:0.4"/>
			<stop  offset="0.1414" style="stop-color:#FFFFFF;stop-opacity:0.3434"/>
			<stop  offset="0.9996" style="stop-color:#FFFFFF;stop-opacity:0"/>
		</linearGradient>
		<path class="st21" d="M73.7,119.74h-5.12c0,0-6.07-0.31-3.48-18.66c2.59-18.36,1.57-18.04,1.57-18.04h24.09L73.7,119.74z"/>
		
			<linearGradient id="SVGID_19_" gradientUnits="userSpaceOnUse" x1="1277.714" y1="320.5745" x2="1268.106" y2="296.7937" gradientTransform="matrix(-1 0 0 -1 1352.0507 413.4923)">
			<stop  offset="0" style="stop-color:#FFFFFF;stop-opacity:0.4"/>
			<stop  offset="0.147" style="stop-color:#FFFFFF;stop-opacity:0.3412"/>
			<stop  offset="0.9996" style="stop-color:#FFFFFF;stop-opacity:0"/>
		</linearGradient>
		<polygon class="st22" points="90.86,83.04 64.66,119.73 73.51,119.74 		"/>
		
			<linearGradient id="SVGID_20_" gradientUnits="userSpaceOnUse" x1="1249.8348" y1="339.1865" x2="1245.7042" y2="328.9628" gradientTransform="matrix(-1 0 0 -1 1352.0507 413.4923)">
			<stop  offset="0" style="stop-color:#FFFFFF;stop-opacity:0.4"/>
			<stop  offset="0.9996" style="stop-color:#FFFFFF;stop-opacity:0"/>
		</linearGradient>
		<polygon class="st23" points="111.47,69.19 95.65,86.06 101.3,86.06 		"/>
		<g>
			<defs>
				<path id="SVGID_21_" d="M132.88,72.01h-16.76l-5.87,11.58h6.66v2.67c-4.4,11.87-18.43,20.21-32.44,17.18
					c0.29-1.85,0.5-2.02,2.21-1.86c11.4,1.05,20.04-3.07,26.27-12.81c0.28-0.44,0.49-0.93,0.72-1.4c0.27-0.56,0.48-0.99,0.6-1.33
					l-6.34,0.01l-0.47-1.79l6.36-13.41c0.6-1.67,1.69-1.66,1.69-1.66h18l2.06,1.65c0,0,1.43,21.67-12.4,34.49
					c0,0-8.75,9.33-18.6,11.9c0,0-11.74,5.3-26.85,0.5l0.99-1.93c0,0,14.02,4.1,25.56-1.03c0,0,10.94-3.57,18-12.24
					C122.29,102.53,133.93,90.89,132.88,72.01z"/>
			</defs>
			<clipPath id="SVGID_22_">
				<use xlink:href="#SVGID_21_"  style="overflow:visible;"/>
			</clipPath>
			
				<linearGradient id="SVGID_23_" gradientUnits="userSpaceOnUse" x1="1002.1768" y1="1087.1547" x2="1005.3127" y2="1062.2834" gradientTransform="matrix(-0.622 1.5793 -1.3317 -0.5245 2183.1643 -925.454)">
				<stop  offset="0" style="stop-color:#FFFFFF;stop-opacity:0.4"/>
				<stop  offset="0.147" style="stop-color:#FFFFFF;stop-opacity:0.3412"/>
				<stop  offset="0.9996" style="stop-color:#FFFFFF;stop-opacity:0"/>
			</linearGradient>
			<polygon class="st24" points="119.21,64.48 103.89,124.73 145.31,97.86 149.29,66.18 			"/>
			
				<linearGradient id="SVGID_24_" gradientUnits="userSpaceOnUse" x1="1021.6458" y1="-106.2919" x2="1024.705" y2="-130.5547" gradientTransform="matrix(-0.622 1.5793 0.4299 0.1693 777.7585 -1478.9426)">
				<stop  offset="0" style="stop-color:#FFFFFF;stop-opacity:0.4"/>
				<stop  offset="0.147" style="stop-color:#FFFFFF;stop-opacity:0.3412"/>
				<stop  offset="0.9996" style="stop-color:#FFFFFF;stop-opacity:0"/>
			</linearGradient>
			<polygon class="st25" points="105.74,94.8 81.61,151.47 87.35,110.11 100.63,82.21 			"/>
		</g>
		<g>
			<defs>
				<path id="SVGID_25_" d="M115.63,36.01l-1.19,2.46c0,0,10.64,6.97,14.82,18.15l-12.03,4.82c0,0-2.59-6.46-8.35-10.97l-1.19,2.15
					c0,0,5.87,5.95,6.96,9.64c0,0,0.25,1.47,2.49,2.07l14.37-6.02c0,0,0.99-1.54,0.35-2.67C131.84,55.65,127.51,44.73,115.63,36.01z
					"/>
			</defs>
			<clipPath id="SVGID_26_">
				<use xlink:href="#SVGID_25_"  style="overflow:visible;"/>
			</clipPath>
			
				<linearGradient id="SVGID_27_" gradientUnits="userSpaceOnUse" x1="1101.0208" y1="-109.2428" x2="1091.2283" y2="-85.6733" gradientTransform="matrix(-0.2216 2.1285 -1.4608 -0.1521 211.4704 -2298.9062)">
				<stop  offset="0" style="stop-color:#FFFFFF;stop-opacity:0.4"/>
				<stop  offset="0.1414" style="stop-color:#FFFFFF;stop-opacity:0.3434"/>
				<stop  offset="0.9996" style="stop-color:#FFFFFF;stop-opacity:0"/>
			</linearGradient>
			<path class="st26" d="M116.93,65.05L94.06,43.07l3.05,2.93c0,0,33.03,2.5,36.05,8.99C136.43,62.06,116.93,65.05,116.93,65.05z"/>
		</g>
		<linearGradient id="SVGID_28_" gradientUnits="userSpaceOnUse" x1="89.3955" y1="64.8448" x2="89.3955" y2="26.0274">
			<stop  offset="0" style="stop-color:#FFFFFF;stop-opacity:0.6"/>
			<stop  offset="0.1014" style="stop-color:#FFFFFF;stop-opacity:0.5159"/>
			<stop  offset="0.7235" style="stop-color:#FFFFFF;stop-opacity:0"/>
		</linearGradient>
		<polygon class="st27" points="74.91,64.84 103.89,26.03 93.53,26.03 		"/>
		<path class="st28" d="M131.84,55.65c0,0-4.23-10.67-15.8-19.33l-1.16,2.46c2.05,1.45,10.71,8.03,14.37,17.85l-12.03,4.82
			c0,0-2.48-6.18-7.99-10.68l-1.1,2.34c1.4,1.48,5.59,6.1,6.5,9.16c0,0,0.25,1.47,2.49,2.07l14.37-6.02
			C131.49,58.32,132.48,56.78,131.84,55.65z"/>
		<path class="st28" d="M48.01,56.38l1.22,4.44c2.37-7.46,5.9-12.06,5.9-12.06c0.24-0.33,0.49-0.66,0.73-0.98
			c-1.23,0.16-2.37,0.25-3.43,0.3C50.6,50.88,49.14,53.65,48.01,56.38z"/>
		<path class="st28" d="M83.98,28.51c-0.84,0.94-1.77,1.95-2.76,3c3.49-0.73,6.03-0.8,6.88-0.79l1.22-2.59
			C87.48,28.14,85.7,28.28,83.98,28.51z"/>
		<path class="st28" d="M53.57,46.4c-0.4,0.56-0.77,1.12-1.14,1.68c1.06-0.04,2.2-0.14,3.43-0.3c8.31-10.9,18.61-14.85,25.37-16.28
			c0.99-1.05,1.92-2.06,2.76-3C64.22,31.16,53.57,46.4,53.57,46.4z"/>
		
			<linearGradient id="SVGID_29_" gradientUnits="userSpaceOnUse" x1="1176.1451" y1="324.6066" x2="1158.1671" y2="367.8777" gradientTransform="matrix(-0.9009 -0.434 0.434 -0.9009 972.2012 853.7078)">
			<stop  offset="0" style="stop-color:#FFFFFF;stop-opacity:0.4"/>
			<stop  offset="0.1414" style="stop-color:#FFFFFF;stop-opacity:0.3434"/>
			<stop  offset="0.9996" style="stop-color:#FFFFFF;stop-opacity:0"/>
		</linearGradient>
		<path class="st29" d="M53.57,46.4c-0.4,0.56-0.77,1.12-1.14,1.68c1.06-0.04,2.2-0.14,3.43-0.3c8.31-10.9,18.61-14.85,25.37-16.28
			c0.99-1.05,1.92-2.06,2.76-3C64.22,31.16,53.57,46.4,53.57,46.4z"/>
		<path class="st30" d="M77.5,47.05c-3.39,1.68-6.16,3.56-8.41,5.56c0,0,0,0,0,0.01C71.34,50.61,74.11,48.73,77.5,47.05z"/>
		<path class="st30" d="M80.32,45.77c0.24-0.1,0.48-0.2,0.73-0.3C80.8,45.57,80.56,45.67,80.32,45.77z"/>
		<path class="st30" d="M77.57,47.02c0.25-0.12,0.51-0.25,0.76-0.37C78.08,46.77,77.82,46.89,77.57,47.02z"/>
		<path class="st30" d="M78.46,46.59c0.24-0.11,0.49-0.23,0.74-0.34C78.95,46.36,78.7,46.48,78.46,46.59z"/>
		<path class="st30" d="M79.38,46.17c0.24-0.11,0.48-0.21,0.73-0.32C79.86,45.96,79.62,46.07,79.38,46.17z"/>
		<path class="st30" d="M81.18,45.42l-1.33,2.82c0,0,0,0,0,0c0.37-0.15,0.57-0.22,0.57-0.22l1.19-2.77
			C81.47,45.3,81.32,45.36,81.18,45.42z"/>
		<path class="st30" d="M65.4,61.31c0.06-0.12,0.12-0.24,0.18-0.36l0,0C65.52,61.07,65.46,61.19,65.4,61.31z"/>
		<path class="st30" d="M70.11,54.83c0.08-0.08,0.17-0.17,0.25-0.25C70.28,54.66,70.2,54.75,70.11,54.83
			C70.11,54.83,70.11,54.83,70.11,54.83z"/>
		<path class="st30" d="M63.43,59.57L63.43,59.57c-6.2,11.01-2.04,22.94-0.97,25.6l0,0C61.4,82.51,57.24,70.57,63.43,59.57z"/>
		
			<linearGradient id="SVGID_30_" gradientUnits="userSpaceOnUse" x1="1407.3359" y1="1401.2063" x2="1390.1427" y2="1442.5889" gradientTransform="matrix(-0.0955 0.9954 -0.9954 -0.0955 1600.6831 -1211.5247)">
			<stop  offset="0" style="stop-color:#FFFFFF;stop-opacity:0.4"/>
			<stop  offset="0.1414" style="stop-color:#FFFFFF;stop-opacity:0.3434"/>
			<stop  offset="0.9996" style="stop-color:#FFFFFF;stop-opacity:0"/>
		</linearGradient>
		<path class="st31" d="M70.09,54.85c0.01-0.01,0.02-0.02,0.02-0.02c0,0,0,0,0,0C70.1,54.84,70.1,54.85,70.09,54.85z"/>
		
			<linearGradient id="SVGID_31_" gradientUnits="userSpaceOnUse" x1="1409.9532" y1="1402.4756" x2="1393.1271" y2="1442.9744" gradientTransform="matrix(-0.0955 0.9954 -0.9954 -0.0955 1600.6831 -1211.5247)">
			<stop  offset="0" style="stop-color:#FFFFFF;stop-opacity:0.4"/>
			<stop  offset="0.1414" style="stop-color:#FFFFFF;stop-opacity:0.3434"/>
			<stop  offset="0.9996" style="stop-color:#FFFFFF;stop-opacity:0"/>
		</linearGradient>
		<path class="st32" d="M69.1,52.62C69.09,52.62,69.09,52.61,69.1,52.62c-2.47,2.2-4.31,4.55-5.66,6.95l0,0
			C64.78,57.17,66.63,54.82,69.1,52.62z"/>
		
			<linearGradient id="SVGID_32_" gradientUnits="userSpaceOnUse" x1="1414.2601" y1="1404.0551" x2="1410.7866" y2="1412.4154" gradientTransform="matrix(-0.0955 0.9954 -0.9954 -0.0955 1600.6831 -1211.5247)">
			<stop  offset="0" style="stop-color:#FFFFFF;stop-opacity:0.4"/>
			<stop  offset="0.1414" style="stop-color:#FFFFFF;stop-opacity:0.3434"/>
			<stop  offset="0.9996" style="stop-color:#FFFFFF;stop-opacity:0"/>
		</linearGradient>
		<path class="st33" d="M65.58,60.95c0.01-0.02,0.02-0.03,0.03-0.05C65.6,60.92,65.59,60.93,65.58,60.95L65.58,60.95z"/>
		<path class="st28" d="M79.2,46.25c0.06-0.03,0.12-0.05,0.17-0.08C79.32,46.2,79.26,46.23,79.2,46.25z"/>
		<path class="st28" d="M77.5,47.05c0.02-0.01,0.04-0.02,0.07-0.03C77.55,47.03,77.53,47.04,77.5,47.05z"/>
		<path class="st28" d="M78.33,46.65c0.04-0.02,0.08-0.04,0.13-0.06C78.42,46.61,78.38,46.63,78.33,46.65z"/>
		<path class="st28" d="M80.11,45.86c0.07-0.03,0.14-0.06,0.21-0.09C80.25,45.8,80.18,45.83,80.11,45.86z"/>
		<path class="st28" d="M81.18,45.42c-0.04,0.02-0.09,0.04-0.13,0.05C81.09,45.45,81.13,45.44,81.18,45.42L81.18,45.42z"/>
		<path class="st28" d="M73.3,52.04c-0.3,0.23-0.61,0.47-0.92,0.72C72.69,52.51,73,52.27,73.3,52.04z"/>
		<path class="st28" d="M49.23,60.82l-1.22-4.44c-9.47,22.92,3.92,42.71,6.33,46.01l1.24-2.64C45.06,84.55,46.2,70.35,49.23,60.82z"
			/>
		
			<linearGradient id="SVGID_33_" gradientUnits="userSpaceOnUse" x1="31.8209" y1="1134.9946" x2="13.509" y2="1179.0692" gradientTransform="matrix(0.7389 -0.6738 0.6738 0.7389 -744.6472 -755.9483)">
			<stop  offset="0" style="stop-color:#FFFFFF;stop-opacity:0.4"/>
			<stop  offset="0.1414" style="stop-color:#FFFFFF;stop-opacity:0.3434"/>
			<stop  offset="0.9996" style="stop-color:#FFFFFF;stop-opacity:0"/>
		</linearGradient>
		<path class="st34" d="M49.23,60.82l-1.22-4.44c-9.47,22.92,3.92,42.71,6.33,46.01l1.24-2.64C45.06,84.55,46.2,70.35,49.23,60.82z"
			/>
		<path class="st30" d="M104.29,114.77c0,0,10.94-3.57,18-12.24c0,0,11.64-11.64,10.59-30.51h-16.76l-5.87,11.58h6.66v2.67
			c-4.4,11.87-18.54,20.19-32.54,17.16v0l-5.78,12.28C78.59,115.7,92.75,119.9,104.29,114.77z"/>
		<path class="st28" d="M135.58,70.85l-2.06-1.65h-18c0,0-1.09,0-1.69,1.66l-6.36,13.41l0.47,1.79l6.34-0.01
			c-0.13,0.35-0.33,0.77-0.6,1.33c-0.23,0.47-0.44,0.96-0.72,1.4c-6.23,9.73-14.87,13.86-26.27,12.81
			c-0.72-0.07-1.01-0.11-1.37-0.15l-0.94,1.99v0c14.01,3.03,28.14-5.29,32.54-17.16V83.6h-5.93l5.46-11.58h16.43
			c1.04,18.87-10.59,30.51-10.59,30.51c-7.06,8.68-18,12.24-18,12.24c-11.54,5.13-25.7,0.93-25.7,0.93l-0.5,1.06l-0.46,0.98
			c15.12,4.8,26.96-0.51,26.96-0.51c9.85-2.56,18.6-11.9,18.6-11.9C137.01,92.52,135.58,70.85,135.58,70.85z"/>
		<polygon class="st28" points="78.59,115.7 78.1,116.76 78.59,115.7 		"/>
		
			<linearGradient id="SVGID_34_" gradientUnits="userSpaceOnUse" x1="741.7994" y1="344.135" x2="853.2966" y2="344.135" gradientTransform="matrix(0.8995 0.4369 -0.4369 0.8995 -488.6913 -541.7932)">
			<stop  offset="1.236652e-03" style="stop-color:#2A82A1"/>
			<stop  offset="0.1894" style="stop-color:#33839A"/>
			<stop  offset="0.4948" style="stop-color:#4B8786"/>
			<stop  offset="0.8773" style="stop-color:#728D66"/>
			<stop  offset="1" style="stop-color:#808F5A"/>
		</linearGradient>
		<polygon class="st35" points="78.59,115.7 78.1,116.76 78.59,115.7 		"/>
		
			<linearGradient id="SVGID_35_" gradientUnits="userSpaceOnUse" x1="769.697" y1="323.3264" x2="772.5942" y2="323.3264" gradientTransform="matrix(0.8995 0.4369 -0.4369 0.8995 -488.6913 -541.7932)">
			<stop  offset="1.236652e-03" style="stop-color:#2A82A1"/>
			<stop  offset="0.1894" style="stop-color:#33839A"/>
			<stop  offset="0.4948" style="stop-color:#4B8786"/>
			<stop  offset="0.8773" style="stop-color:#728D66"/>
			<stop  offset="1" style="stop-color:#808F5A"/>
		</linearGradient>
		<path class="st36" d="M62.54,85.34c0.03,0.07,0.06,0.13,0.08,0.19C62.59,85.48,62.57,85.42,62.54,85.34z"/>
		
			<linearGradient id="SVGID_36_" gradientUnits="userSpaceOnUse" x1="769.697" y1="323.1949" x2="772.5949" y2="323.1949" gradientTransform="matrix(0.8995 0.4369 -0.4369 0.8995 -488.6913 -541.7932)">
			<stop  offset="1.236652e-03" style="stop-color:#2A82A1"/>
			<stop  offset="0.1894" style="stop-color:#33839A"/>
			<stop  offset="0.4948" style="stop-color:#4B8786"/>
			<stop  offset="0.8773" style="stop-color:#728D66"/>
			<stop  offset="1" style="stop-color:#808F5A"/>
		</linearGradient>
		<path class="st37" d="M62.46,85.16L62.46,85.16c0.03,0.06,0.05,0.13,0.07,0.18C62.51,85.29,62.49,85.23,62.46,85.16z"/>
		<path class="st28" d="M55.79,100.04c-0.07-0.1-0.13-0.19-0.2-0.29l-1.24,2.64c0.23,0.32,0.37,0.48,0.37,0.48L55.79,100.04z"/>
		
			<linearGradient id="SVGID_37_" gradientUnits="userSpaceOnUse" x1="29.3565" y1="1133.7352" x2="10.9531" y2="1178.0302" gradientTransform="matrix(0.7389 -0.6738 0.6738 0.7389 -744.6472 -755.9483)">
			<stop  offset="0" style="stop-color:#FFFFFF;stop-opacity:0.4"/>
			<stop  offset="0.1414" style="stop-color:#FFFFFF;stop-opacity:0.3434"/>
			<stop  offset="0.9996" style="stop-color:#FFFFFF;stop-opacity:0"/>
		</linearGradient>
		<path class="st38" d="M55.79,100.04c-0.07-0.1-0.13-0.19-0.2-0.29l-1.24,2.64c0.23,0.32,0.37,0.48,0.37,0.48L55.79,100.04z"/>
		<g>
			<defs>
				<path id="SVGID_38_" d="M115.63,36.01l-1.19,2.46c0,0,10.64,6.97,14.82,18.15l-12.03,4.82c0,0-2.59-6.46-8.35-10.97l-1.19,2.15
					c0,0,5.87,5.95,6.96,9.64c0,0,0.25,1.47,2.49,2.07l14.37-6.02c0,0,0.99-1.54,0.35-2.67C131.84,55.65,127.51,44.73,115.63,36.01z
					"/>
			</defs>
			<clipPath id="SVGID_39_">
				<use xlink:href="#SVGID_38_"  style="overflow:visible;"/>
			</clipPath>
			
				<linearGradient id="SVGID_40_" gradientUnits="userSpaceOnUse" x1="1101.0208" y1="-109.2428" x2="1091.2283" y2="-85.6733" gradientTransform="matrix(-0.2216 2.1285 -1.4608 -0.1521 211.4704 -2298.9062)">
				<stop  offset="0" style="stop-color:#FFFFFF;stop-opacity:0.4"/>
				<stop  offset="0.1414" style="stop-color:#FFFFFF;stop-opacity:0.3434"/>
				<stop  offset="0.9996" style="stop-color:#FFFFFF;stop-opacity:0"/>
			</linearGradient>
			<path class="st39" d="M116.93,65.05L94.06,43.07l3.05,2.93c0,0,33.03,2.5,36.05,8.99C136.43,62.06,116.93,65.05,116.93,65.05z"/>
		</g>
		<g>
			<defs>
				<path id="SVGID_41_" d="M132.88,72.01h-16.76l-5.87,11.58h6.66v2.67c-4.4,11.87-18.43,20.21-32.44,17.18
					c0.29-1.85,0.5-2.02,2.21-1.86c11.4,1.05,20.04-3.07,26.27-12.81c0.28-0.44,0.49-0.93,0.72-1.4c0.27-0.56,0.48-0.99,0.6-1.33
					l-6.34,0.01l-0.47-1.79l6.36-13.41c0.6-1.67,1.69-1.66,1.69-1.66h18l2.06,1.65c0,0,1.43,21.67-12.4,34.49
					c0,0-8.75,9.33-18.6,11.9c0,0-11.74,5.3-26.85,0.5l0.99-1.93c0,0,14.02,4.1,25.56-1.03c0,0,10.94-3.57,18-12.24
					C122.29,102.53,133.93,90.89,132.88,72.01z"/>
			</defs>
			<clipPath id="SVGID_42_">
				<use xlink:href="#SVGID_41_"  style="overflow:visible;"/>
			</clipPath>
			
				<linearGradient id="SVGID_43_" gradientUnits="userSpaceOnUse" x1="1002.1768" y1="1087.1547" x2="1005.3127" y2="1062.2834" gradientTransform="matrix(-0.622 1.5793 -1.3317 -0.5245 2183.1643 -925.454)">
				<stop  offset="0" style="stop-color:#FFFFFF;stop-opacity:0.4"/>
				<stop  offset="0.147" style="stop-color:#FFFFFF;stop-opacity:0.3412"/>
				<stop  offset="0.9996" style="stop-color:#FFFFFF;stop-opacity:0"/>
			</linearGradient>
			<polygon class="st40" points="119.21,64.48 103.89,124.73 145.31,97.86 149.29,66.18 			"/>
			
				<linearGradient id="SVGID_44_" gradientUnits="userSpaceOnUse" x1="1021.6458" y1="-106.2919" x2="1024.705" y2="-130.5547" gradientTransform="matrix(-0.622 1.5793 0.4299 0.1693 777.7585 -1478.9426)">
				<stop  offset="0" style="stop-color:#FFFFFF;stop-opacity:0.4"/>
				<stop  offset="0.147" style="stop-color:#FFFFFF;stop-opacity:0.3412"/>
				<stop  offset="0.9996" style="stop-color:#FFFFFF;stop-opacity:0"/>
			</linearGradient>
			<polygon class="st41" points="105.74,94.8 81.61,151.47 87.35,110.11 100.63,82.21 			"/>
		</g>
		<path class="st28" d="M81.05,45.47c-0.25,0.1-0.49,0.2-0.73,0.3c-0.07,0.03-0.14,0.06-0.21,0.09c-0.25,0.1-0.49,0.21-0.73,0.32
			c-0.06,0.03-0.12,0.05-0.17,0.08c-0.25,0.11-0.5,0.22-0.74,0.34c-0.04,0.02-0.08,0.04-0.13,0.06c-0.26,0.12-0.51,0.24-0.76,0.37
			c-0.02,0.01-0.04,0.02-0.07,0.03c-3.39,1.68-6.16,3.56-8.41,5.57c-2.47,2.2-4.31,4.55-5.66,6.95c-6.2,11.01-2.04,22.94-0.97,25.6
			l1.46-3.11l0.03,0.01c-0.05-0.19-0.1-0.38-0.15-0.57c-0.03-0.13-0.06-0.25-0.09-0.38c-0.06-0.26-0.12-0.51-0.18-0.77
			c-0.03-0.15-0.06-0.3-0.09-0.44c-0.05-0.23-0.09-0.46-0.14-0.68c-0.03-0.15-0.06-0.31-0.08-0.46c-0.04-0.21-0.07-0.43-0.11-0.64
			c-0.02-0.15-0.05-0.31-0.07-0.46c-0.03-0.21-0.06-0.41-0.08-0.62c-0.02-0.15-0.04-0.3-0.05-0.45c-0.02-0.2-0.04-0.41-0.06-0.61
			c-0.01-0.15-0.03-0.29-0.04-0.44c-0.02-0.2-0.03-0.4-0.04-0.61c-0.01-0.14-0.02-0.28-0.03-0.42c-0.01-0.21-0.02-0.42-0.02-0.62
			c0-0.12-0.01-0.25-0.01-0.37c0-0.24,0-0.47,0-0.7c0-0.09,0-0.18,0-0.27c0-0.32,0.01-0.64,0.03-0.95c0-0.05,0.01-0.1,0.01-0.15
			c0.01-0.26,0.03-0.52,0.05-0.78c0.01-0.11,0.02-0.21,0.03-0.31c0.02-0.2,0.04-0.4,0.06-0.59c0.01-0.12,0.03-0.23,0.04-0.35
			c0.02-0.18,0.05-0.36,0.07-0.53c0.02-0.12,0.04-0.24,0.06-0.36c0.03-0.17,0.06-0.34,0.09-0.51c0.02-0.12,0.05-0.24,0.07-0.36
			c0.03-0.16,0.07-0.33,0.1-0.49c0.03-0.12,0.05-0.23,0.08-0.35c0.04-0.16,0.08-0.32,0.12-0.48c0.03-0.11,0.06-0.22,0.09-0.33
			c0.04-0.16,0.09-0.32,0.14-0.48c0.03-0.1,0.06-0.21,0.09-0.31c0.05-0.17,0.11-0.34,0.16-0.5c0.03-0.09,0.06-0.18,0.09-0.27
			c0.07-0.2,0.14-0.4,0.22-0.6c0.02-0.05,0.04-0.1,0.05-0.15c0.09-0.25,0.19-0.49,0.29-0.73c0.02-0.05,0.05-0.11,0.07-0.16
			c0.08-0.19,0.16-0.37,0.24-0.55c0.04-0.08,0.08-0.16,0.11-0.24c0.07-0.15,0.14-0.3,0.21-0.45c0.04-0.09,0.09-0.18,0.13-0.26
			c0.06-0.12,0.12-0.24,0.18-0.36c0.01-0.02,0.02-0.03,0.03-0.05c0.05-0.09,0.1-0.18,0.14-0.27c0.07-0.13,0.14-0.26,0.22-0.39
			c0.05-0.09,0.1-0.17,0.15-0.26c0.07-0.13,0.15-0.25,0.22-0.37c0.05-0.08,0.1-0.17,0.16-0.25c0.08-0.12,0.16-0.25,0.24-0.37
			c0.05-0.08,0.1-0.16,0.16-0.24c0.08-0.12,0.17-0.25,0.25-0.37c0.05-0.07,0.1-0.14,0.15-0.22c0.09-0.13,0.19-0.26,0.29-0.39
			c0.04-0.06,0.08-0.12,0.13-0.17c0.13-0.18,0.27-0.35,0.41-0.52c0.01-0.01,0.01-0.01,0.02-0.02c0.14-0.18,0.29-0.36,0.44-0.53
			c0.04-0.04,0.07-0.09,0.11-0.13c0.11-0.13,0.22-0.26,0.33-0.38c0.05-0.06,0.1-0.12,0.16-0.17c0.1-0.11,0.19-0.21,0.29-0.32
			c0.06-0.06,0.12-0.12,0.17-0.18c0.09-0.1,0.19-0.2,0.28-0.29c0.06-0.06,0.12-0.12,0.18-0.19c0.01-0.01,0.02-0.02,0.02-0.02
			c0.08-0.08,0.17-0.17,0.25-0.25c0.06-0.06,0.12-0.12,0.18-0.18c0.09-0.09,0.19-0.18,0.28-0.27c0.06-0.06,0.12-0.11,0.18-0.17
			c0.09-0.09,0.19-0.17,0.28-0.26c0.06-0.05,0.12-0.11,0.18-0.16c0.1-0.09,0.2-0.18,0.3-0.26c0.05-0.05,0.11-0.09,0.16-0.14
			c0.11-0.1,0.23-0.19,0.34-0.29c0.04-0.03,0.08-0.07,0.12-0.1c0.31-0.25,0.61-0.49,0.92-0.72c0.04-0.03,0.09-0.06,0.13-0.1
			c0.11-0.08,0.21-0.16,0.32-0.24c0.05-0.04,0.11-0.08,0.16-0.12c0.09-0.07,0.19-0.14,0.28-0.2c0.06-0.04,0.11-0.08,0.17-0.12
			c0.09-0.06,0.18-0.12,0.27-0.18c0.06-0.04,0.11-0.08,0.17-0.12c0.09-0.06,0.18-0.12,0.26-0.17c0.06-0.04,0.11-0.07,0.17-0.11
			c0.09-0.06,0.17-0.11,0.26-0.16c0.05-0.03,0.11-0.07,0.16-0.1c0.09-0.05,0.17-0.1,0.25-0.16c0.05-0.03,0.1-0.06,0.16-0.09
			c0.09-0.05,0.18-0.1,0.26-0.16c0.04-0.03,0.09-0.05,0.13-0.08c0.1-0.06,0.2-0.11,0.29-0.17c0.03-0.02,0.06-0.03,0.09-0.05
			c0.13-0.07,0.25-0.14,0.37-0.21c0.02-0.01,0.03-0.02,0.05-0.03c0.1-0.06,0.21-0.11,0.31-0.16c0.04-0.02,0.08-0.04,0.12-0.06
			c0.08-0.04,0.15-0.08,0.22-0.12c0.04-0.02,0.09-0.04,0.13-0.07c0.07-0.03,0.13-0.07,0.2-0.1c0.04-0.02,0.09-0.04,0.13-0.06
			c0.06-0.03,0.12-0.06,0.18-0.09c0.04-0.02,0.08-0.04,0.13-0.06c0.05-0.03,0.11-0.05,0.16-0.08c0.04-0.02,0.08-0.04,0.12-0.06
			c0.05-0.02,0.1-0.05,0.15-0.07c0.04-0.02,0.07-0.03,0.11-0.05c0.05-0.02,0.09-0.04,0.14-0.06c0.03-0.01,0.07-0.03,0.1-0.04
			c0.05-0.02,0.09-0.04,0.13-0.06c0.03-0.01,0.06-0.02,0.08-0.04c0.04-0.02,0.08-0.04,0.12-0.05c0.02-0.01,0.04-0.02,0.07-0.03
			c0,0,0,0,0,0l1.33-2.82C81.13,45.44,81.09,45.45,81.05,45.47z"/>
		<path class="st28" d="M69.05,52.42c-2.47,2.21-4.32,4.77-5.66,7.17c-6.2,11.01-2.04,22.96-0.97,25.61l1.46-3.11l0.03,0.01
			c-0.05-0.19-0.1-0.38-0.15-0.57c-0.03-0.13-0.06-0.25-0.09-0.38c-0.06-0.26-0.12-0.51-0.18-0.77c-0.03-0.15-0.06-0.3-0.09-0.44
			c-0.05-0.23-0.09-0.46-0.14-0.68c-0.03-0.15-0.06-0.31-0.08-0.46c-0.04-0.21-0.07-0.43-0.11-0.64c-0.02-0.15-0.05-0.31-0.07-0.46
			c-0.03-0.21-0.06-0.41-0.08-0.62c-0.02-0.15-0.04-0.3-0.05-0.45c-0.02-0.2-0.04-0.41-0.06-0.61c-0.01-0.15-0.03-0.29-0.04-0.44
			c-0.02-0.2-0.03-0.4-0.04-0.61c-0.01-0.14-0.02-0.28-0.03-0.42c-0.01-0.21-0.02-0.42-0.02-0.62c0-0.12-0.01-0.25-0.01-0.37
			c0-0.24,0-0.47,0-0.7c0-0.09,0-0.18,0-0.27c0-0.32,0.01-0.64,0.03-0.95c0-0.05,0.01-0.1,0.01-0.15c0.01-0.26,0.03-0.52,0.05-0.78
			c0.01-0.11,0.02-0.21,0.03-0.31c0.02-0.2,0.04-0.4,0.06-0.59c0.01-0.12,0.03-0.23,0.04-0.35c0.02-0.18,0.05-0.36,0.07-0.53
			c0.02-0.12,0.04-0.24,0.06-0.36c0.03-0.17,0.06-0.34,0.09-0.51c0.02-0.12,0.05-0.24,0.07-0.36c0.03-0.16,0.07-0.33,0.1-0.49
			c0.03-0.12,0.05-0.23,0.08-0.35c0.04-0.16,0.08-0.32,0.12-0.48c0.03-0.11,0.06-0.22,0.09-0.33c0.04-0.16,0.09-0.32,0.14-0.48
			c0.03-0.1,0.06-0.21,0.09-0.31c0.05-0.17,0.11-0.34,0.16-0.5c0.03-0.09,0.06-0.18,0.09-0.27c0.07-0.2,0.14-0.4,0.22-0.6
			c0.02-0.05,0.04-0.1,0.05-0.15c0.09-0.25,0.19-0.49,0.29-0.73c0.02-0.05,0.05-0.11,0.07-0.16c0.08-0.19,0.16-0.37,0.24-0.55
			c0.04-0.08,0.08-0.16,0.11-0.24c0.07-0.15,0.14-0.3,0.21-0.45c0.04-0.09,0.09-0.18,0.13-0.26c0.06-0.12,0.12-0.24,0.18-0.36
			c0.01-0.02,0.02-0.03,0.03-0.05c0.05-0.09,0.1-0.18,0.14-0.27c0.07-0.13,0.14-0.26,0.22-0.39c0.05-0.09,0.1-0.17,0.15-0.26
			c0.07-0.13,0.15-0.25,0.22-0.37c0.05-0.08,0.1-0.17,0.16-0.25c0.08-0.12,0.16-0.25,0.24-0.37c0.05-0.08,0.1-0.16,0.16-0.24
			c0.08-0.12,0.17-0.25,0.25-0.37c0.05-0.07,0.1-0.14,0.15-0.22c0.09-0.13,0.19-0.26,0.29-0.39c0.04-0.06,0.08-0.12,0.13-0.17
			c0.13-0.18,0.27-0.35,0.41-0.53c0.01-0.01,0.01-0.01,0.02-0.02c0.14-0.18,0.29-0.36,0.44-0.54c0.04-0.04,0.07-0.09,0.11-0.13
			c0.11-0.13,0.22-0.26,0.33-0.38c0.05-0.06,0.1-0.12,0.16-0.17c0.1-0.11,0.19-0.21,0.29-0.32c0.06-0.06,0.12-0.12,0.17-0.18
			c0.09-0.1,0.19-0.2,0.28-0.29c0.06-0.06,0.12-0.12,0.18-0.19c0.01-0.01,0.02-0.02,0.02-0.02c0.08-0.08,0.17-0.17,0.25-0.25
			c0.06-0.06,0.12-0.12,0.18-0.18c0.09-0.09,0.19-0.18,0.28-0.27c0.06-0.06,0.12-0.11,0.18-0.17c0.09-0.09,0.19-0.17,0.28-0.26
			c0.06-0.05,0.12-0.11,0.18-0.16c0.1-0.09,0.2-0.18,0.3-0.26c0.05-0.05,0.11-0.09,0.16-0.14c0.11-0.1,0.23-0.19,0.34-0.29
			c0.04-0.03,0.08-0.07,0.12-0.1c0.31-0.25,0.61-0.49,0.92-0.72c0.04-0.03,0.09-0.06,0.13-0.1c0.11-0.08,0.21-0.16,0.32-0.24
			c0.05-0.04,0.11-0.08,0.16-0.12c0.09-0.07,0.19-0.14,0.28-0.2c0.06-0.04,0.11-0.08,0.17-0.12c0.09-0.06,0.18-0.12,0.27-0.18
			c0.06-0.04,0.11-0.08,0.17-0.12c0.09-0.06,0.18-0.12,0.26-0.17c0.06-0.04,0.11-0.07,0.17-0.11c0.09-0.06,0.17-0.11,0.26-0.16
			c0.05-0.03,0.11-0.07,0.16-0.1c0.09-0.05,0.17-0.1,0.25-0.16c0.05-0.03,0.1-0.06,0.16-0.09c0.09-0.05,0.18-0.1,0.26-0.16
			c0.04-0.03,0.09-0.05,0.13-0.08c0.1-0.06,0.2-0.11,0.29-0.17c0.03-0.02,0.06-0.03,0.09-0.05c0.13-0.07,0.25-0.14,0.37-0.21
			c0.02-0.01,0.03-0.02,0.05-0.03c0.1-0.06,0.21-0.11,0.31-0.16c0.04-0.02,0.08-0.04,0.12-0.06c0.08-0.04,0.15-0.08,0.22-0.12
			c0.04-0.02,0.09-0.04,0.13-0.07c0.07-0.03,0.13-0.07,0.2-0.1c0.04-0.02,0.09-0.04,0.13-0.06c0.06-0.03,0.12-0.06,0.18-0.09
			c0.04-0.02,0.08-0.04,0.13-0.06c0.05-0.03,0.11-0.05,0.16-0.08c0.04-0.02,0.08-0.04,0.12-0.06c0.05-0.02,0.1-0.05,0.15-0.07
			c0.04-0.02,0.07-0.03,0.11-0.05c0.05-0.02,0.09-0.04,0.14-0.06c0.03-0.01,0.07-0.03,0.1-0.04c0.05-0.02,0.09-0.04,0.13-0.06
			c0.03-0.01,0.06-0.02,0.08-0.04c0.04-0.02,0.08-0.04,0.12-0.05c0.02-0.01,0.04-0.02,0.07-0.03c0,0,0,0,0,0l1.59-3.32
			C75.63,47.03,72.35,49.48,69.05,52.42z"/>
		<g>
			<defs>
				<path id="SVGID_45_" d="M81.05,45.47c-0.25,0.1-0.49,0.2-0.73,0.3c-0.07,0.03-0.14,0.06-0.21,0.09
					c-0.25,0.1-0.49,0.21-0.73,0.32c-0.06,0.03-0.12,0.05-0.17,0.08c-0.25,0.11-0.5,0.22-0.74,0.34c-0.04,0.02-0.08,0.04-0.13,0.06
					c-0.26,0.12-0.51,0.24-0.76,0.37c-0.02,0.01-0.04,0.02-0.07,0.03c-3.39,1.68-6.16,3.56-8.41,5.57c-2.47,2.2-4.31,4.55-5.66,6.95
					c-6.2,11.01-2.04,22.94-0.97,25.6l1.46-3.11l0.03,0.01c-0.05-0.19-0.1-0.38-0.15-0.57c-0.03-0.13-0.06-0.25-0.09-0.38
					c-0.06-0.26-0.12-0.51-0.18-0.77c-0.03-0.15-0.06-0.3-0.09-0.44c-0.05-0.23-0.09-0.46-0.14-0.68c-0.03-0.15-0.06-0.31-0.08-0.46
					c-0.04-0.21-0.07-0.43-0.11-0.64c-0.02-0.15-0.05-0.31-0.07-0.46c-0.03-0.21-0.06-0.41-0.08-0.62c-0.02-0.15-0.04-0.3-0.05-0.45
					c-0.02-0.2-0.04-0.41-0.06-0.61c-0.01-0.15-0.03-0.29-0.04-0.44c-0.02-0.2-0.03-0.4-0.04-0.61c-0.01-0.14-0.02-0.28-0.03-0.42
					c-0.01-0.21-0.02-0.42-0.02-0.62c0-0.12-0.01-0.25-0.01-0.37c0-0.24,0-0.47,0-0.7c0-0.09,0-0.18,0-0.27
					c0-0.32,0.01-0.64,0.03-0.95c0-0.05,0.01-0.1,0.01-0.15c0.01-0.26,0.03-0.52,0.05-0.78c0.01-0.11,0.02-0.21,0.03-0.31
					c0.02-0.2,0.04-0.4,0.06-0.59c0.01-0.12,0.03-0.23,0.04-0.35c0.02-0.18,0.05-0.36,0.07-0.53c0.02-0.12,0.04-0.24,0.06-0.36
					c0.03-0.17,0.06-0.34,0.09-0.51c0.02-0.12,0.05-0.24,0.07-0.36c0.03-0.16,0.07-0.33,0.1-0.49c0.03-0.12,0.05-0.23,0.08-0.35
					c0.04-0.16,0.08-0.32,0.12-0.48c0.03-0.11,0.06-0.22,0.09-0.33c0.04-0.16,0.09-0.32,0.14-0.48c0.03-0.1,0.06-0.21,0.09-0.31
					c0.05-0.17,0.11-0.34,0.16-0.5c0.03-0.09,0.06-0.18,0.09-0.27c0.07-0.2,0.14-0.4,0.22-0.6c0.02-0.05,0.04-0.1,0.05-0.15
					c0.09-0.25,0.19-0.49,0.29-0.73c0.02-0.05,0.05-0.11,0.07-0.16c0.08-0.19,0.16-0.37,0.24-0.55c0.04-0.08,0.08-0.16,0.11-0.24
					c0.07-0.15,0.14-0.3,0.21-0.45c0.04-0.09,0.09-0.18,0.13-0.26c0.06-0.12,0.12-0.24,0.18-0.36c0.01-0.02,0.02-0.03,0.03-0.05
					c0.05-0.09,0.1-0.18,0.14-0.27c0.07-0.13,0.14-0.26,0.22-0.39c0.05-0.09,0.1-0.17,0.15-0.26c0.07-0.13,0.15-0.25,0.22-0.37
					c0.05-0.08,0.1-0.17,0.16-0.25c0.08-0.12,0.16-0.25,0.24-0.37c0.05-0.08,0.1-0.16,0.16-0.24c0.08-0.12,0.17-0.25,0.25-0.37
					c0.05-0.07,0.1-0.14,0.15-0.22c0.09-0.13,0.19-0.26,0.29-0.39c0.04-0.06,0.08-0.12,0.13-0.17c0.13-0.18,0.27-0.35,0.41-0.52
					c0.01-0.01,0.01-0.01,0.02-0.02c0.14-0.18,0.29-0.36,0.44-0.53c0.04-0.04,0.07-0.09,0.11-0.13c0.11-0.13,0.22-0.26,0.33-0.38
					c0.05-0.06,0.1-0.12,0.16-0.17c0.1-0.11,0.19-0.21,0.29-0.32c0.06-0.06,0.12-0.12,0.17-0.18c0.09-0.1,0.19-0.2,0.28-0.29
					c0.06-0.06,0.12-0.12,0.18-0.19c0.01-0.01,0.02-0.02,0.02-0.02c0.08-0.08,0.17-0.17,0.25-0.25c0.06-0.06,0.12-0.12,0.18-0.18
					c0.09-0.09,0.19-0.18,0.28-0.27c0.06-0.06,0.12-0.11,0.18-0.17c0.09-0.09,0.19-0.17,0.28-0.26c0.06-0.05,0.12-0.11,0.18-0.16
					c0.1-0.09,0.2-0.18,0.3-0.26c0.05-0.05,0.11-0.09,0.16-0.14c0.11-0.1,0.23-0.19,0.34-0.29c0.04-0.03,0.08-0.07,0.12-0.1
					c0.31-0.25,0.61-0.49,0.92-0.72c0.04-0.03,0.09-0.06,0.13-0.1c0.11-0.08,0.21-0.16,0.32-0.24c0.05-0.04,0.11-0.08,0.16-0.12
					c0.09-0.07,0.19-0.14,0.28-0.2c0.06-0.04,0.11-0.08,0.17-0.12c0.09-0.06,0.18-0.12,0.27-0.18c0.06-0.04,0.11-0.08,0.17-0.12
					c0.09-0.06,0.18-0.12,0.26-0.17c0.06-0.04,0.11-0.07,0.17-0.11c0.09-0.06,0.17-0.11,0.26-0.16c0.05-0.03,0.11-0.07,0.16-0.1
					c0.09-0.05,0.17-0.1,0.25-0.16c0.05-0.03,0.1-0.06,0.16-0.09c0.09-0.05,0.18-0.1,0.26-0.16c0.04-0.03,0.09-0.05,0.13-0.08
					c0.1-0.06,0.2-0.11,0.29-0.17c0.03-0.02,0.06-0.03,0.09-0.05c0.13-0.07,0.25-0.14,0.37-0.21c0.02-0.01,0.03-0.02,0.05-0.03
					c0.1-0.06,0.21-0.11,0.31-0.16c0.04-0.02,0.08-0.04,0.12-0.06c0.08-0.04,0.15-0.08,0.22-0.12c0.04-0.02,0.09-0.04,0.13-0.07
					c0.07-0.03,0.13-0.07,0.2-0.1c0.04-0.02,0.09-0.04,0.13-0.06c0.06-0.03,0.12-0.06,0.18-0.09c0.04-0.02,0.08-0.04,0.13-0.06
					c0.05-0.03,0.11-0.05,0.16-0.08c0.04-0.02,0.08-0.04,0.12-0.06c0.05-0.02,0.1-0.05,0.15-0.07c0.04-0.02,0.07-0.03,0.11-0.05
					c0.05-0.02,0.09-0.04,0.14-0.06c0.03-0.01,0.07-0.03,0.1-0.04c0.05-0.02,0.09-0.04,0.13-0.06c0.03-0.01,0.06-0.02,0.08-0.04
					c0.04-0.02,0.08-0.04,0.12-0.05c0.02-0.01,0.04-0.02,0.07-0.03c0,0,0,0,0,0l1.33-2.82C81.13,45.44,81.09,45.45,81.05,45.47z"/>
			</defs>
			<clipPath id="SVGID_46_">
				<use xlink:href="#SVGID_45_"  style="overflow:visible;"/>
			</clipPath>
			
				<linearGradient id="SVGID_47_" gradientUnits="userSpaceOnUse" x1="765.7156" y1="1745.9261" x2="768.8092" y2="1721.3901" gradientTransform="matrix(0.56 1.6023 -1.3511 0.4722 1998.1444 -1964.165)">
				<stop  offset="0" style="stop-color:#FFFFFF;stop-opacity:0.4"/>
				<stop  offset="0.147" style="stop-color:#FFFFFF;stop-opacity:0.3412"/>
				<stop  offset="0.9996" style="stop-color:#FFFFFF;stop-opacity:0"/>
			</linearGradient>
			<polygon class="st42" points="58.75,65.63 85.29,121.59 99.66,73.35 82.61,46.68 			"/>
		</g>
	</g>
</g>
</svg>
